<?xml version="1.0" encoding="UTF-8"?>
<svg width="113px" height="28px" viewBox="0 0 113 28" version="1.1" xmlns="http://www.w3.org/2000/svg" xmlns:xlink="http://www.w3.org/1999/xlink">
    <!-- Generator: Sketch 42 (36781) - http://www.bohemiancoding.com/sketch -->
    <title>mazzy</title>
    <desc>Created with Sketch.</desc>
    <defs></defs>
    <g id="Page-1" stroke="none" stroke-width="1" fill="none" fill-rule="evenodd">
        <path d="M21.4910651,0 C18.8484025,0 16.9052682,1.05804758 15.700525,2.82146021 C14.6123698,1.01886063 12.8246863,0 10.4151997,0 C7.92798787,0 6.10144164,0.979673684 5.01328644,2.62552547 L5.01328644,0.548617263 L7.10542736e-15,0.548617263 L7.10542736e-15,20.1420909 L5.01328644,20.1420909 L5.01328644,9.13055874 C5.01328644,6.19153768 6.52893118,4.70243368 8.66637889,4.70243368 C10.7649639,4.70243368 11.9308445,6.11316379 11.9308445,8.42519368 L11.9308445,20.1420909 L16.9441309,20.1420909 L16.9441309,9.13055874 C16.9441309,6.19153768 18.3431876,4.70243368 20.5583607,4.70243368 C22.6569457,4.70243368 23.8228263,6.11316379 23.8228263,8.42519368 L23.8228263,20.1420909 L28.8361127,20.1420909 L28.8361127,8.07251116 C28.8361127,3.17414274 25.9214113,0 21.4910651,0 Z M48.4611741,0.548617263 L53.4744606,0.548617263 L53.4744606,20.1420909 L48.4611741,20.1420909 L48.4611741,17.8300611 C47.0621175,19.5934737 44.9635324,20.6907082 42.1265564,20.6907082 C36.9578192,20.6907082 32.6829238,16.1842093 32.6829238,10.3453541 C32.6829238,4.50649895 36.9578192,0 42.1265564,0 C44.9635324,0 47.0621175,1.09723453 48.4611741,2.86064716 L48.4611741,0.548617263 Z M43.0592608,15.8707137 C46.1682757,15.8707137 48.4611741,13.6370577 48.4611741,10.3453541 C48.4611741,7.05365053 46.1682757,4.81999453 43.0592608,4.81999453 C39.9891087,4.81999453 37.6962102,7.05365053 37.6962102,10.3453541 C37.6962102,13.6370577 39.9891087,15.8707137 43.0592608,15.8707137 Z M63.4901282,15.4004703 L71.7290175,3.91869474 L71.7290175,0.548617263 L57.1555104,0.548617263 L57.1555104,5.29023789 L64.9669102,5.29023789 L56.7668835,16.7720135 L56.7668835,20.1420909 L72.1176444,20.1420909 L72.1176444,15.4004703 L63.4901282,15.4004703 Z M82.0658971,15.4004703 L90.3047864,3.91869474 L90.3047864,0.548617263 L75.7312793,0.548617263 L75.7312793,5.29023789 L83.5426791,5.29023789 L75.3426525,16.7720135 L75.3426525,20.1420909 L90.6934133,20.1420909 L90.6934133,15.4004703 L82.0658971,15.4004703 Z M107.636949,0.548617263 L103.323191,13.7154316 L98.2710422,0.548617263 L92.7914035,0.548617263 L100.758254,19.5150998 C99.8255496,22.1406253 98.4264929,23.3162337 95.6672422,23.2770467 L95.6672422,27.9794804 C100.602803,28.2537891 103.906132,25.7850114 105.926991,20.1420909 L113,0.548617263 L107.636949,0.548617263 Z" id="mazzy" fill="#F8F8FC"></path>
    </g>
</svg>