<?xml version="1.0" encoding="UTF-8"?>
<svg width="92px" height="24px" viewBox="0 0 92 24" version="1.1" xmlns="http://www.w3.org/2000/svg" xmlns:xlink="http://www.w3.org/1999/xlink">
    <!-- Generator: Sketch 43.1 (39012) - http://www.bohemiancoding.com/sketch -->
    <title>mazzy</title>
    <desc>Created with Sketch.</desc>
    <defs></defs>
    <g id="Project-Case" stroke="none" stroke-width="1" fill="none" fill-rule="evenodd">
        <g id="Desktop-HD-Copy-2" transform="translate(-47.000000, -29.000000)" fill="#304FFF">
            <path d="M65.584,29.552 C63.408,29.552 61.808,30.416 60.816,31.856 C59.92,30.384 58.448,29.552 56.464,29.552 C54.416,29.552 52.912,30.352 52.016,31.696 L52.016,30 L47.888,30 L47.888,46 L52.016,46 L52.016,37.008 C52.016,34.608 53.264,33.392 55.024,33.392 C56.752,33.392 57.712,34.544 57.712,36.432 L57.712,46 L61.84,46 L61.84,37.008 C61.84,34.608 62.992,33.392 64.816,33.392 C66.544,33.392 67.504,34.544 67.504,36.432 L67.504,46 L71.632,46 L71.632,36.144 C71.632,32.144 69.232,29.552 65.584,29.552 Z M87.0625511,30 L91.1905511,30 L91.1905511,46 L87.0625511,46 L87.0625511,44.112 C85.9105511,45.552 84.1825511,46.448 81.8465511,46.448 C77.5905511,46.448 74.0705511,42.768 74.0705511,38 C74.0705511,33.232 77.5905511,29.552 81.8465511,29.552 C84.1825511,29.552 85.9105511,30.448 87.0625511,31.888 L87.0625511,30 Z M82.6145511,42.512 C85.1745511,42.512 87.0625511,40.688 87.0625511,38 C87.0625511,35.312 85.1745511,33.488 82.6145511,33.488 C80.0865511,33.488 78.1985511,35.312 78.1985511,38 C78.1985511,40.688 80.0865511,42.512 82.6145511,42.512 Z M99.7091022,42.128 L106.493102,32.752 L106.493102,30 L94.4931022,30 L94.4931022,33.872 L100.925102,33.872 L94.1731022,43.248 L94.1731022,46 L106.813102,46 L106.813102,42.128 L99.7091022,42.128 Z M114.275653,42.128 L121.059653,32.752 L121.059653,30 L109.059653,30 L109.059653,33.872 L115.491653,33.872 L108.739653,43.248 L108.739653,46 L121.379653,46 L121.379653,42.128 L114.275653,42.128 Z M134.602204,30 L131.050204,40.752 L126.890204,30 L122.378204,30 L128.938204,45.488 C128.170204,47.632 127.018204,48.592 124.746204,48.56 L124.746204,52.4 C128.810204,52.624 131.530204,50.608 133.194204,46 L139.018204,30 L134.602204,30 Z" id="mazzy"></path>
        </g>
    </g>
</svg>